<?xml version="1.0" standalone="no"?>
<!DOCTYPE svg PUBLIC "-//W3C//DTD SVG 20010904//EN"
 "http://www.w3.org/TR/2001/REC-SVG-20010904/DTD/svg10.dtd">
<svg version="1.0" xmlns="http://www.w3.org/2000/svg"
 width="512.000000pt" height="512.000000pt" viewBox="0 0 512.000000 512.000000"
 preserveAspectRatio="xMidYMid meet">
<metadata>
Created by potrace 1.11, written by Peter Selinger 2001-2013
</metadata>
<g transform="translate(0.000000,512.000000) scale(0.100000,-0.100000)"
fill="#000000" stroke="none">
<path d="M2670 5098 c-24 -26 -84 -147 -126 -256 -23 -61 -37 -81 -79 -115
-123 -100 -251 -239 -320 -349 l-31 -48 -394 -2 -395 -1 -23 69 c-117 343
-150 433 -198 530 -55 112 -107 181 -139 181 -30 0 -62 -60 -104 -192 -62
-200 -139 -493 -175 -670 -3 -11 -11 -52 -20 -90 -8 -39 -17 -83 -20 -98 -2
-15 -7 -35 -10 -45 -3 -9 -7 -33 -10 -52 -3 -19 -17 -75 -32 -125 -14 -49 -30
-103 -34 -120 -59 -226 -252 -598 -419 -808 -127 -160 -147 -205 -122 -288 15
-51 110 -152 219 -233 100 -76 367 -213 480 -246 l41 -13 -20 -26 c-13 -18
-21 -50 -25 -102 -7 -81 12 -162 57 -251 16 -31 18 -46 10 -73 -23 -83 1 -214
77 -425 14 -40 21 -94 26 -200 4 -80 9 -161 11 -180 2 -19 7 -60 10 -90 3 -30
13 -98 21 -150 9 -52 18 -106 20 -120 6 -44 61 -332 80 -422 l19 -88 1328 0
1328 0 -7 48 c-3 26 -8 54 -10 64 -1 9 -6 38 -10 65 -3 26 -8 57 -10 68 -2 11
-7 40 -9 65 -3 25 -8 52 -10 60 -2 8 -7 35 -10 60 -3 25 -8 56 -10 70 -4 23
-25 175 -30 210 -2 21 -16 101 -22 125 -5 24 -32 178 -39 220 -26 167 -100
473 -157 655 -25 80 -62 213 -83 295 -20 83 -41 161 -48 175 -13 27 -14 102
-2 137 5 16 20 26 49 33 151 38 425 158 606 267 215 130 379 268 546 458 39
44 76 86 83 93 54 58 149 233 210 387 41 105 159 458 192 579 24 86 71 265 75
287 2 9 13 61 25 115 29 131 27 123 50 249 10 61 22 124 25 140 12 67 17 163
8 168 -13 8 -464 -208 -680 -324 -141 -76 -358 -217 -560 -363 -286 -208 -532
-477 -668 -731 -39 -72 -64 -113 -66 -105 0 3 -2 12 -4 20 -8 36 -16 78 -21
110 -3 19 -21 113 -40 209 -29 151 -33 187 -28 270 8 136 8 384 0 461 -12 103
-13 109 -36 220 -25 120 -47 173 -74 178 -10 2 -45 -14 -76 -37 l-58 -40 -17
47 c-21 57 -61 112 -80 112 -8 0 -24 -10 -35 -22z"/>
</g>
</svg>
